<svg width="26" height="22" viewBox="0 0 26 22" fill="none" xmlns="http://www.w3.org/2000/svg">
<path d="M23.8967 0.500004L2.10627 0.500004C0.444651 0.500004 -0.564943 2.30085 0.339485 3.68771L11.2347 20.537C11.4244 20.832 11.6868 21.075 11.9976 21.2433C12.3083 21.4117 12.6573 21.5 13.012 21.5C13.3667 21.5 13.7157 21.4117 14.0264 21.2433C14.3372 21.075 14.5996 20.832 14.7893 20.537L25.6635 3.68771C25.8687 3.37549 25.9844 3.01457 25.9985 2.643C26.0127 2.27144 25.9246 1.90301 25.7437 1.57659C25.5628 1.25016 25.2957 0.977845 24.9706 0.788363C24.6455 0.59888 24.2745 0.499258 23.8967 0.500004Z" fill="white"/>
</svg>
