<svg width="35" height="35" viewBox="0 0 35 35" fill="none" xmlns="http://www.w3.org/2000/svg">
<path d="M26.8246 2.68231C24.1423 0.991288 20.9352 0 17.4948 0C14.0545 0 10.8473 0.991288 8.16503 2.68231V32.246C10.8473 33.937 14.0545 34.9283 17.4948 34.9283C20.9352 34.9283 24.1423 33.937 26.8246 32.246V2.68231Z" fill="#F9F9F9"/>
<path d="M26.8231 2.68248V32.2462C31.7212 29.214 34.9866 23.6162 34.9866 17.4352C34.9866 11.2542 31.7212 5.77297 26.8231 2.68248ZM8.16355 2.68248C3.26542 5.77297 0 11.3708 0 17.4935C0 23.6162 3.26542 29.214 8.16355 32.3045V2.68248ZM23.8492 17.2602C23.616 17.1436 23.5577 16.9104 23.616 16.7938L24.1991 14.6946L22.1582 15.1027C22.0999 15.1027 21.8667 15.1027 21.8083 14.6946L21.6334 13.9948L20.2339 15.6275C20.2339 15.6275 19.301 16.6188 19.5925 15.1027L20.1756 11.8956L19.0677 12.4787C19.0094 12.4787 18.7762 12.5371 18.4846 11.9539L17.4933 9.91305L16.4437 11.8373C16.1522 12.4204 15.9189 12.3621 15.8606 12.3621L14.7527 11.779L15.3358 14.9861C15.6274 16.5022 14.6944 15.5109 14.6944 15.5109L13.2949 13.8782L13.12 14.5779C13.0034 14.9861 12.8284 14.9861 12.7701 14.9861L10.7292 14.5779L11.3123 16.6771C11.3123 16.8521 11.3123 17.027 11.0791 17.1436L10.496 17.4935C10.496 17.4935 12.8284 19.3594 13.5865 20.0009C13.7614 20.1175 14.1113 20.4674 13.9947 20.8755L13.7031 21.6919L16.9102 21.2254C17.0851 21.2254 17.435 21.2254 17.3767 21.7502L17.2018 25.0739H17.7849L17.6099 21.7502C17.6099 21.2254 17.9598 21.2254 18.0764 21.2254L21.2835 21.6919L20.992 20.8755C20.8754 20.4674 21.2252 20.1175 21.4002 20.0009C22.1582 19.3594 24.4907 17.4935 24.4907 17.4935L23.8492 17.2602Z" fill="#ED4C5C"/>
</svg>
