<svg width="44" height="29" viewBox="0 0 44 29" fill="none" xmlns="http://www.w3.org/2000/svg">
<path d="M4.11328 1.08675V6.70662C4.11328 6.80392 4.15228 6.89724 4.22171 6.96605C4.29113 7.03485 4.38529 7.07351 4.48347 7.07351H38.6939C38.7921 7.07351 38.8863 7.03485 38.9557 6.96605C39.0251 6.89724 39.0641 6.80392 39.0641 6.70662V1.08675H38.312V0.469433C38.312 0.372127 38.273 0.278806 38.2036 0.210001C38.1342 0.141195 38.04 0.102539 37.9418 0.102539C37.8436 0.102539 37.7495 0.141195 37.68 0.210001C37.6106 0.278806 37.5716 0.372127 37.5716 0.469433V1.08675H4.11328Z" fill="#0ED4FF"/>
<path d="M18.0396 2.34507C18.0396 2.19061 18.1015 2.04248 18.2117 1.93327C18.3219 1.82405 18.4713 1.7627 18.6272 1.7627H31.0022C31.158 1.7627 31.3075 1.82405 31.4177 1.93327C31.5279 2.04248 31.5898 2.19061 31.5898 2.34507C31.5898 2.49952 31.5279 2.64765 31.4177 2.75686C31.3075 2.86608 31.158 2.92744 31.0022 2.92744H18.6154C18.4616 2.92439 18.3152 2.86169 18.2075 2.7528C18.0998 2.64391 18.0395 2.49752 18.0396 2.34507Z" fill="#C0FF0E"/>
<path d="M40.8269 9.40324C40.9828 9.40324 41.1322 9.34189 41.2424 9.23267C41.3526 9.12346 41.4145 8.97533 41.4145 8.82088V1.66355C41.4145 1.50909 41.3526 1.36096 41.2424 1.25175C41.1322 1.14253 40.9828 1.08118 40.8269 1.08118H39.4343V6.53799C39.4351 6.67641 39.4083 6.81363 39.3556 6.94181C39.3029 7.06999 39.2252 7.18663 39.1269 7.28505C39.0287 7.38347 38.9119 7.46176 38.7832 7.51544C38.6544 7.56912 38.5163 7.59714 38.3766 7.5979H4.80662C4.52557 7.59483 4.25717 7.48161 4.06008 7.28301C3.86299 7.0844 3.75324 6.81655 3.75481 6.53799V1.08118H3.5844V0.859877C3.59389 0.750551 3.58035 0.640463 3.54464 0.536597C3.50894 0.43273 3.45184 0.33735 3.37698 0.256504C3.30212 0.175659 3.21113 0.111111 3.10977 0.0669558C3.00842 0.0228001 2.89891 0 2.78819 0C2.67748 0 2.56797 0.0228001 2.46661 0.0669558C2.36526 0.111111 2.27427 0.175659 2.19941 0.256504C2.12455 0.33735 2.06745 0.43273 2.03175 0.536597C1.99604 0.640463 1.9825 0.750551 1.99199 0.859877V1.08118H1.0812C0.954559 1.0844 0.832364 1.1281 0.732827 1.20576C0.63329 1.28342 0.561742 1.39089 0.528847 1.51213H0.352563C0.308091 1.50978 0.263594 1.51625 0.221673 1.53115C0.179752 1.54605 0.141251 1.56909 0.108421 1.59891C0.0755918 1.62874 0.0490949 1.66475 0.0304783 1.70485C0.0118616 1.74495 0.00149958 1.78832 0 1.83243V5.90902C0 5.99706 0.0352884 6.0815 0.0981011 6.14375C0.160914 6.206 0.246105 6.24098 0.334936 6.24098H0.475962V8.82088C0.475962 8.97533 0.53787 9.12346 0.648068 9.23267C0.758266 9.34189 0.907726 9.40324 1.06357 9.40324H15.6715C15.6715 9.40324 15.6715 9.43819 15.6715 9.45566V13.6429C15.673 14.3714 15.9657 15.0697 16.4855 15.5849C17.0053 16.1 17.7099 16.3901 18.445 16.3917H24.8088C25.3861 16.3894 25.9483 16.2087 26.4171 15.8746C26.8858 15.5405 27.2377 15.0698 27.4236 14.5281L31.578 28.4176C31.6321 28.5781 31.733 28.719 31.868 28.8227C32.0029 28.9263 32.1657 28.988 32.336 29H43.5946C43.9119 29 44 28.7496 44 28.4176C44 22.5473 34.0048 12.2802 40.8269 9.40324ZM35.6207 12.1054C35.2336 11.5068 34.7158 11.002 34.1057 10.628C33.4955 10.2541 32.8084 10.0206 32.0951 9.94485H22.5523C22.6698 11.4251 22.1901 12.8912 21.2185 14.0214C20.8365 14.4116 21.7179 14.6795 22.5288 14.3534C23.4292 14.0035 24.2284 13.4388 24.8557 12.7094C25.4831 11.98 25.919 11.1084 26.125 10.172L26.8948 12.7344V13.6254C26.8948 14.1737 26.675 14.6996 26.2838 15.0873C25.8926 15.475 25.362 15.6928 24.8088 15.6928H18.445C18.1708 15.6936 17.8992 15.6407 17.6458 15.537C17.3923 15.4334 17.1621 15.2812 16.9682 15.089C16.7744 14.8969 16.6207 14.6687 16.5162 14.4175C16.4116 14.1663 16.3582 13.8971 16.359 13.6254V9.45566C16.359 9.45566 16.359 9.42072 16.359 9.40324H33.1234C33.7853 9.45284 34.4211 9.68016 34.9626 10.0608C35.504 10.4415 35.9306 10.9611 36.1966 11.5638L37.9594 15.8035L35.6207 12.1054Z" fill="#0ED4FF"/>
</svg>
