<svg width="35" height="33" viewBox="0 0 35 33" fill="none" xmlns="http://www.w3.org/2000/svg">
<path d="M15.8699 32.4548C12.8358 32.4548 9.86978 31.5548 7.34697 29.8685C4.82417 28.1822 2.85788 25.7854 1.69676 22.9813C0.535644 20.1771 0.231843 17.0915 0.823777 14.1146C1.41571 11.1377 2.87679 8.40326 5.02226 6.25705C7.16773 4.11083 9.90122 2.64924 12.8771 2.0571C15.8529 1.46496 18.9375 1.76887 21.7407 2.93039C24.5438 4.09192 26.9398 6.05889 28.6255 8.58257C30.3111 11.1063 31.2109 14.0733 31.2109 17.1085C31.2011 21.1756 29.5817 25.0733 26.7068 27.9492C23.832 30.825 19.9356 32.445 15.8699 32.4548Z" fill="url(#paint0_linear_4015_3379)"/>
<path d="M15.8699 2.23863C18.8112 2.23863 21.6864 3.11118 24.1319 4.74594C26.5774 6.38069 28.4833 8.70421 29.6086 11.4226C30.734 14.141 31.0281 17.1322 30.4539 20.0179C29.8798 22.9036 28.463 25.5541 26.3828 27.6342C24.3027 29.7144 21.6526 31.1307 18.7677 31.7041C15.8828 32.2774 12.8928 31.9821 10.1757 30.8554C7.45865 29.7287 5.13662 27.8213 3.50331 25.3744C1.86999 22.9274 0.998766 20.0509 0.999812 17.1086C0.999812 15.1554 1.38448 13.2214 2.13184 11.4169C2.8792 9.61246 3.9746 7.97296 5.35549 6.59208C6.73638 5.21121 8.37569 4.116 10.1798 3.36902C11.9839 2.62204 13.9174 2.23793 15.8699 2.23863ZM15.8699 1.24906C12.7312 1.24906 9.66287 2.18014 7.05308 3.92456C4.44328 5.66897 2.40919 8.14838 1.20803 11.0492C0.00687623 13.9501 -0.307401 17.1421 0.304943 20.2217C0.917288 23.3012 2.42875 26.1299 4.6482 28.3502C6.86765 30.5704 9.6954 32.0824 12.7739 32.695C15.8523 33.3075 19.0432 32.9931 21.9431 31.7915C24.8429 30.59 27.3215 28.5552 29.0653 25.9445C30.8091 23.3338 31.7399 20.2644 31.7399 17.1245C31.7399 12.9141 30.0679 8.8761 27.0917 5.89887C24.1155 2.92165 20.0789 1.24906 15.8699 1.24906Z" fill="white"/>
<path d="M15.8699 28.4859C13.6203 28.487 11.4208 27.8206 9.54974 26.5711C7.67869 25.3215 6.2201 23.545 5.35846 21.4661C4.49682 19.3873 4.27083 17.0995 4.70908 14.8921C5.14733 12.6848 6.23013 10.657 7.82053 9.06533C9.41092 7.47364 11.4375 6.38952 13.6438 5.95009C15.8502 5.51066 18.1373 5.73566 20.2159 6.59664C22.2944 7.45761 24.071 8.91588 25.321 10.787C26.5709 12.6581 27.2381 14.858 27.2381 17.1085C27.2353 20.1242 26.0369 23.0157 23.9057 25.1486C21.7745 27.2815 18.8846 28.4817 15.8699 28.4859Z" fill="url(#paint1_linear_4015_3379)"/>
<path d="M15.8699 28.4859C13.6203 28.487 11.4208 27.8206 9.54974 26.5711C7.67869 25.3215 6.2201 23.545 5.35846 21.4661C4.49682 19.3873 4.27083 17.0995 4.70908 14.8921C5.14733 12.6848 6.23013 10.657 7.82053 9.06533C9.41092 7.47364 11.4375 6.38952 13.6438 5.95009C15.8502 5.51066 18.1373 5.73566 20.2159 6.59664C22.2944 7.45761 24.071 8.91588 25.321 10.787C26.5709 12.6581 27.2381 14.858 27.2381 17.1085C27.2353 20.1242 26.0369 23.0157 23.9057 25.1486C21.7745 27.2815 18.8846 28.4817 15.8699 28.4859ZM15.8699 6.72066C13.8149 6.72066 11.8059 7.33034 10.0973 8.47259C8.38862 9.61484 7.05697 11.2383 6.27077 13.1377C5.48456 15.0371 5.27913 17.1271 5.68044 19.1433C6.08175 21.1596 7.07178 23.0114 8.52531 24.4647C9.97884 25.918 11.8306 26.9075 13.8463 27.3079C15.862 27.7083 17.9512 27.5017 19.8495 26.7143C21.7478 25.9268 23.3701 24.5939 24.5111 22.8841C25.6521 21.1742 26.2605 19.1643 26.2594 17.1085C26.2566 14.3534 25.161 11.7121 23.213 9.76442C21.2651 7.81677 18.6241 6.72206 15.8699 6.72066Z" fill="white"/>
<path d="M15.8699 29.47C13.4257 29.4711 11.036 28.747 9.00311 27.3893C6.97025 26.0316 5.38555 24.1013 4.44943 21.8426C3.51332 19.5839 3.26785 17.0982 3.74406 14.6999C4.22028 12.3016 5.39679 10.0985 7.12479 8.36915C8.85279 6.63981 11.0547 5.46195 13.4519 4.98454C15.8491 4.50713 18.3341 4.75162 20.5924 5.6871C22.8507 6.62257 24.781 8.207 26.1391 10.24C27.4972 12.273 28.222 14.6632 28.222 17.1083C28.2192 20.3851 26.9171 23.5269 24.6014 25.8444C22.2857 28.1619 19.1455 29.4658 15.8699 29.47ZM15.8699 5.7309C13.6203 5.72986 11.4208 6.39624 9.54975 7.64577C7.6787 8.8953 6.22011 10.6718 5.35847 12.7507C4.49683 14.8296 4.27084 17.1173 4.70909 19.3247C5.14734 21.5321 6.23014 23.5598 7.82054 25.1515C9.41093 26.7432 11.4375 27.8273 13.6439 28.2667C15.8502 28.7062 18.1373 28.4812 20.2159 27.6202C22.2944 26.7592 24.071 25.3009 25.321 23.4298C26.5709 21.5587 27.2381 19.359 27.2381 17.1085C27.2353 14.0928 26.0369 11.2012 23.9057 9.06823C21.7745 6.93531 18.8846 5.73511 15.8699 5.7309Z" fill="white"/>
<path d="M15.8699 24.3848C14.4311 24.3858 13.0243 23.96 11.8274 23.1611C10.6306 22.3622 9.69746 21.2261 9.14612 19.8967C8.59478 18.5672 8.44998 17.104 8.73004 15.6922C9.0101 14.2804 9.70244 12.9834 10.7195 11.9653C11.7365 10.9472 13.0326 10.2536 14.4437 9.97245C15.8548 9.69126 17.3175 9.83505 18.647 10.3856C19.9764 10.9362 21.1127 11.8688 21.9121 13.0655C22.7116 14.2622 23.1384 15.6692 23.1384 17.1085C23.1356 19.0365 22.3691 20.8848 21.0067 22.2486C19.6444 23.6124 17.7973 24.3806 15.8699 24.3848Z" fill="white"/>
<path d="M15.87 10.3246C17.2113 10.3246 18.5224 10.7225 19.6377 11.4679C20.7529 12.2134 21.6222 13.2729 22.1355 14.5125C22.6488 15.7522 22.7831 17.1162 22.5214 18.4322C22.2597 19.7482 21.6138 20.957 20.6654 21.9058C19.7169 22.8546 18.5085 23.5007 17.193 23.7625C15.8775 24.0242 14.5139 23.8899 13.2747 23.3764C12.0355 22.8629 10.9763 21.9934 10.2311 20.8778C9.48594 19.7621 9.0882 18.4505 9.0882 17.1087C9.0882 15.3094 9.8027 13.5839 11.0745 12.3116C12.3464 11.0393 14.0713 10.3246 15.87 10.3246ZM15.87 9.3403C14.3331 9.33611 12.8297 9.78816 11.5498 10.6392C10.27 11.4903 9.27134 12.7021 8.68032 14.1212C8.08931 15.5403 7.9325 17.1029 8.22975 18.6112C8.527 20.1195 9.26493 21.5057 10.3501 22.5943C11.4353 23.6828 12.819 24.4248 14.326 24.7262C15.833 25.0277 17.3955 24.8751 18.8157 24.2878C20.2359 23.7004 21.45 22.7047 22.3042 21.4268C23.1585 20.1488 23.6145 18.646 23.6145 17.1087C23.6117 15.0529 22.7955 13.0818 21.3444 11.6262C19.8932 10.1705 17.925 9.34869 15.87 9.3403Z" fill="url(#paint2_linear_4015_3379)"/>
<path d="M15.8699 20.3525C15.2286 20.3525 14.6016 20.1622 14.0684 19.8058C13.5351 19.4493 13.1195 18.9427 12.874 18.3499C12.6286 17.7572 12.5644 17.105 12.6895 16.4757C12.8146 15.8465 13.1235 15.2685 13.577 14.8148C14.0305 14.3611 14.6083 14.0522 15.2373 13.927C15.8663 13.8018 16.5183 13.8661 17.1109 14.1116C17.7034 14.3571 18.2099 14.7729 18.5662 15.3064C18.9225 15.8398 19.1127 16.467 19.1127 17.1086C19.1113 17.9685 18.7692 18.7928 18.1614 19.4008C17.5535 20.0088 16.7295 20.3511 15.8699 20.3525Z" fill="url(#paint3_linear_4015_3379)"/>
<path d="M15.87 14.357C16.4138 14.358 16.9451 14.5203 17.3968 14.8233C17.8485 15.1263 18.2002 15.5564 18.4076 16.0593C18.615 16.5623 18.6687 17.1154 18.562 17.6488C18.4552 18.1822 18.1928 18.6721 17.8079 19.0564C17.423 19.4407 16.9328 19.7022 16.3994 19.808C15.8659 19.9137 15.3131 19.8589 14.8108 19.6505C14.3084 19.4421 13.8791 19.0894 13.5771 18.637C13.2751 18.1846 13.1139 17.6528 13.1139 17.1087C13.1132 16.7467 13.184 16.3882 13.3224 16.0536C13.4607 15.7191 13.6638 15.4152 13.9199 15.1595C14.176 14.9038 14.4802 14.7012 14.8148 14.5635C15.1495 14.4258 15.5081 14.3556 15.87 14.357ZM15.87 13.3727C15.1313 13.3727 14.4092 13.5918 13.7951 14.0023C13.1809 14.4129 12.7022 14.9963 12.4195 15.679C12.1369 16.3617 12.0629 17.1129 12.207 17.8376C12.3511 18.5623 12.7068 19.228 13.2291 19.7505C13.7514 20.273 14.4169 20.6288 15.1414 20.773C15.8658 20.9171 16.6168 20.8431 17.2992 20.5604C17.9816 20.2776 18.5649 19.7987 18.9753 19.1844C19.3857 18.57 19.6047 17.8476 19.6047 17.1087C19.6033 16.1183 19.2094 15.1688 18.5093 14.4685C17.8092 13.7682 16.8601 13.3741 15.87 13.3727Z" fill="url(#paint4_linear_4015_3379)"/>
<path d="M31.1209 6.30284H31.0045L29.153 5.85833C29.0521 5.8341 28.9615 5.77858 28.894 5.69969C28.8265 5.6208 28.7857 5.52259 28.7775 5.41911L28.624 3.51405C28.6169 3.43669 28.6285 3.35875 28.658 3.28688C28.6875 3.215 28.7339 3.15133 28.7933 3.10129L31.6869 0.630009C31.7763 0.551818 31.8909 0.50859 32.0096 0.508297C32.0622 0.500314 32.1157 0.500314 32.1683 0.508297C32.2496 0.536812 32.322 0.585939 32.3786 0.650872C32.4351 0.715804 32.4739 0.794318 32.491 0.878725L32.7925 2.33927L34.1891 2.86845C34.2675 2.90138 34.3368 2.95272 34.3911 3.01813C34.4454 3.08353 34.4832 3.16106 34.5012 3.24417C34.5169 3.32856 34.51 3.41559 34.4812 3.49644C34.4524 3.57729 34.4027 3.64909 34.3372 3.70456L31.4436 6.18113C31.3527 6.25662 31.239 6.29947 31.1209 6.30284Z" fill="white"/>
<path d="M34.9879 3.16452C34.9573 2.99613 34.8837 2.8385 34.7744 2.70687C34.665 2.57523 34.5236 2.47404 34.3637 2.41308L33.2211 1.98444L32.9724 0.788493C32.9378 0.620437 32.8602 0.464267 32.747 0.335311C32.6339 0.206355 32.4892 0.109044 32.3271 0.0529297C32.225 0.0174058 32.1177 -0.000490317 32.0097 1.02158e-05C31.7748 0.00086106 31.5479 0.0852723 31.3696 0.238143L28.476 2.70942C28.3565 2.81035 28.2629 2.93845 28.203 3.083C28.1432 3.22756 28.1189 3.38435 28.1321 3.54024L28.2855 5.44C28.2932 5.50699 28.3092 5.57276 28.3331 5.6358L15.542 16.7486C15.4439 16.8344 15.3839 16.9555 15.375 17.0854C15.366 17.2153 15.409 17.3435 15.4944 17.4419C15.5425 17.4938 15.6005 17.5355 15.665 17.5646C15.7295 17.5937 15.7992 17.6095 15.8699 17.6112C15.9957 17.613 16.1173 17.5656 16.2085 17.4789L29.0579 6.32374L30.9093 6.76825C30.985 6.77604 31.0612 6.77604 31.1368 6.76825C31.3721 6.76978 31.5998 6.68507 31.7769 6.53012L34.6705 4.05884C34.7937 3.94801 34.8873 3.80816 34.9427 3.65198C34.9981 3.4958 35.0137 3.32824 34.9879 3.16452ZM31.1209 5.81043L29.9624 5.52996C30.0118 5.48745 30.0521 5.43556 30.0813 5.37732C30.1104 5.31907 30.1277 5.25563 30.1321 5.19065C30.1365 5.12568 30.128 5.06047 30.1071 4.99881C30.0861 4.93715 30.0531 4.88026 30.01 4.83144C29.968 4.78228 29.9166 4.74199 29.8588 4.71292C29.8011 4.68386 29.7381 4.66661 29.6735 4.66217C29.609 4.65774 29.5443 4.66621 29.4831 4.6871C29.4219 4.70799 29.3654 4.74087 29.3171 4.78382L29.2271 4.8632L29.116 3.46616L32.0097 0.989582L32.3641 2.72001L34.0146 3.34973L31.1209 5.81043Z" fill="white"/>
<defs>
<linearGradient id="paint0_linear_4015_3379" x1="17.5" y1="0" x2="17.5" y2="33" gradientUnits="userSpaceOnUse">
<stop stop-color="#010D1C"/>
<stop offset="1" stop-color="#220039"/>
</linearGradient>
<linearGradient id="paint1_linear_4015_3379" x1="17.5" y1="0" x2="17.5" y2="33" gradientUnits="userSpaceOnUse">
<stop stop-color="#010D1C"/>
<stop offset="1" stop-color="#220039"/>
</linearGradient>
<linearGradient id="paint2_linear_4015_3379" x1="17.5" y1="0" x2="17.5" y2="33" gradientUnits="userSpaceOnUse">
<stop stop-color="#010D1C"/>
<stop offset="1" stop-color="#220039"/>
</linearGradient>
<linearGradient id="paint3_linear_4015_3379" x1="17.5" y1="0" x2="17.5" y2="33" gradientUnits="userSpaceOnUse">
<stop stop-color="#010D1C"/>
<stop offset="1" stop-color="#220039"/>
</linearGradient>
<linearGradient id="paint4_linear_4015_3379" x1="17.5" y1="0" x2="17.5" y2="33" gradientUnits="userSpaceOnUse">
<stop stop-color="#010D1C"/>
<stop offset="1" stop-color="#220039"/>
</linearGradient>
</defs>
</svg>
