<svg width="27" height="28" viewBox="0 0 27 28" fill="none" xmlns="http://www.w3.org/2000/svg">
<path d="M26.3387 9.6943L21.5574 5.64553L26.3804 1.55127C26.4071 1.53098 26.4265 1.50278 26.4357 1.47083C26.4448 1.43888 26.4433 1.40488 26.4313 1.37385C26.4185 1.34309 26.3967 1.31674 26.3687 1.29812C26.3407 1.2795 26.3077 1.26945 26.2739 1.26922H11.1846V0.154672C11.1846 0.113651 11.168 0.0743086 11.1385 0.0453019C11.109 0.0162953 11.069 0 11.0272 0C10.9855 0 10.9455 0.0162953 10.916 0.0453019C10.8865 0.0743086 10.8699 0.113651 10.8699 0.154672V27.8091C10.8699 27.8502 10.8865 27.8895 10.916 27.9185C10.9455 27.9475 10.9855 27.9638 11.0272 27.9638C11.069 27.9638 11.109 27.9475 11.1385 27.9185C11.168 27.8895 11.1846 27.8502 11.1846 27.8091V9.98545H26.26C26.3011 9.98326 26.3398 9.96627 26.3689 9.93772C26.3979 9.90917 26.4152 9.87109 26.4174 9.83078C26.4166 9.80346 26.4089 9.77676 26.3952 9.75298C26.3815 9.7292 26.3621 9.70906 26.3387 9.6943Z" fill="#0ED4FF"/>
<path d="M21.4881 17.5429L18.7803 15.2365L21.5251 12.9164C21.5405 12.9042 21.5515 12.8874 21.5565 12.8686C21.5615 12.8498 21.5602 12.8298 21.5529 12.8118C21.545 12.7954 21.5325 12.7816 21.5169 12.7719C21.5014 12.7623 21.4833 12.7572 21.4649 12.7572H12.8557V12.1112C12.8588 12.0979 12.8588 12.084 12.8557 12.0707C12.8526 12.0574 12.8465 12.0449 12.8378 12.0342C12.8291 12.0236 12.8181 12.0149 12.8056 12.009C12.7931 12.0031 12.7793 12 12.7654 12C12.7515 12 12.7378 12.0031 12.7253 12.009C12.7127 12.0149 12.7017 12.0236 12.6931 12.0342C12.6844 12.0449 12.6783 12.0574 12.6752 12.0707C12.6721 12.084 12.6721 12.0979 12.6752 12.1112V27.8605C12.6798 27.8806 12.6913 27.8985 12.7077 27.9114C12.7241 27.9242 12.7444 27.9312 12.7654 27.9312C12.7864 27.9312 12.8068 27.9242 12.8232 27.9114C12.8396 27.8985 12.851 27.8806 12.8557 27.8605V17.7385H21.4418C21.4651 17.7364 21.4869 17.7259 21.5031 17.7092C21.5192 17.6925 21.5287 17.6706 21.5297 17.6476C21.5342 17.628 21.5327 17.6076 21.5252 17.5889C21.5178 17.5703 21.5049 17.5543 21.4881 17.5429Z" fill="#C0FF0E"/>
<path d="M9.29157 17.5454L6.55143 15.2299L9.3286 12.9007C9.34294 12.8877 9.35318 12.871 9.3581 12.8524C9.36303 12.8339 9.36243 12.8143 9.35637 12.7961C9.34792 12.7789 9.33482 12.7642 9.3185 12.7538C9.30217 12.7434 9.28326 12.7376 9.2638 12.737H0.626794V12.091C0.626794 12.0669 0.617041 12.0437 0.59968 12.0266C0.58232 12.0096 0.558775 12 0.534223 12C0.509671 12 0.486125 12.0096 0.468764 12.0266C0.451404 12.0437 0.44165 12.0669 0.44165 12.091V27.9085C0.44165 27.9326 0.451404 27.9557 0.468764 27.9728C0.486125 27.9899 0.509671 27.9995 0.534223 27.9995C0.558775 27.9995 0.58232 27.9899 0.59968 27.9728C0.617041 27.9557 0.626794 27.9326 0.626794 27.9085V17.7183H9.24529C9.26914 17.7163 9.29149 17.706 9.30842 17.6894C9.32535 17.6727 9.33577 17.6508 9.33786 17.6273C9.33786 17.5909 9.32397 17.5773 9.29157 17.5454Z" fill="#C0FF0E"/>
</svg>
