<svg width="26" height="22" viewBox="0 0 26 22" fill="none" xmlns="http://www.w3.org/2000/svg">
<path d="M2.10333 21.5H23.8937C25.5553 21.5 26.5649 19.6992 25.6605 18.3123L14.7653 1.463C14.5756 1.16801 14.3132 0.925034 14.0024 0.756662C13.6917 0.588291 13.3427 0.5 12.988 0.5C12.6333 0.5 12.2843 0.588291 11.9736 0.756662C11.6628 0.925034 11.4004 1.16801 11.2107 1.463L0.336539 18.3123C0.131349 18.6245 0.0155872 18.9854 0.00146679 19.357C-0.0126536 19.7286 0.0753904 20.097 0.256311 20.4234C0.437232 20.7498 0.704321 21.0222 1.0294 21.2116C1.35449 21.4011 1.72551 21.5007 2.10333 21.5Z" fill="white"/>
</svg>
